<svg xmlns="http://www.w3.org/2000/svg" width="256.545" height="41.965" viewBox="0 0 256.545 41.965">
    <g id="Grupo_23439" data-name="Grupo 23439" transform="translate(0 0)">
    <rect id="Rectángulo_23" data-name="Rectángulo 23" width="14.343" height="41.506" transform="translate(39.087 0.205)" fill="#fff"></rect>
    <path id="Trazado_85" data-name="Trazado 85" d="M175.126,8.786A8.786,8.786,0,1,1,166.34,0a8.786,8.786,0,0,1,8.786,8.786" transform="translate(-101.726 0)" fill="#ff6720"></path>
    <rect id="Rectángulo_25" data-name="Rectángulo 25" width="14.342" height="41.423" transform="translate(0 0.205)" fill="#fff"></rect>
    <path id="Trazado_86" data-name="Trazado 86" d="M64.936,8.786A8.786,8.786,0,1,1,56.15,0a8.786,8.786,0,0,1,8.786,8.786" transform="translate(-30.581 0)" fill="#0072ce"></path>
    <path id="Trazado_87" data-name="Trazado 87" d="M246.157.609v17.32h13.114V14.465h-9.4V10.753h7.175V7.413h-7.175V4.073h9.155V.609Z" transform="translate(-158.932 -0.393)" fill="#fff"></path>
    <path id="Trazado_88" data-name="Trazado 88" d="M288.186,22.864a3.941,3.941,0,0,0,.866.693,4.268,4.268,0,0,0,2.35.668c1.114,0,1.485-.371,1.485-.866,0-1.361-6.186-1.114-6.186-5.072,0-1.979,1.732-3.711,4.825-3.711a6.774,6.774,0,0,1,3.514.94,5.781,5.781,0,0,1,1.188.916l-1.979,2.1a4.085,4.085,0,0,0-.717-.5,3.977,3.977,0,0,0-2-.495c-.866,0-1.237.371-1.237.742,0,1.361,6.186,1.113,6.186,5.072,0,2.078-1.732,3.835-5.072,3.835a7.08,7.08,0,0,1-3.86-1.113,5.926,5.926,0,0,1-1.336-1.113Z" transform="translate(-184.791 -9.41)" fill="#fff"></path>
    <path id="Trazado_89" data-name="Trazado 89" d="M329.094,24.719a5.32,5.32,0,0,1-1.237,1.237,6.31,6.31,0,1,1,0-10.145,5.32,5.32,0,0,1,1.237,1.237l-2.1,2.1a4.5,4.5,0,0,0-.792-.742,3.745,3.745,0,0,0-2.177-.742,3.093,3.093,0,0,0-3.093,3.217,3.093,3.093,0,0,0,3.093,3.216,3.745,3.745,0,0,0,2.177-.742,4.5,4.5,0,0,0,.792-.742Z" transform="translate(-205.052 -9.41)" fill="#fff"></path>
    <path id="Trazado_90" data-name="Trazado 90" d="M353.559,15.273h3.34v6.8a2.1,2.1,0,0,0,2.227,2.35,2.569,2.569,0,0,0,2.6-2.722V15.273h3.34V27.4h-3.34V25.665H361.6a5.8,5.8,0,0,1-.916.99,4.18,4.18,0,0,1-2.672.99c-2.474,0-4.454-1.979-4.454-5.072Z" transform="translate(-228.277 -9.861)" fill="#fff"></path>
    <path id="Trazado_91" data-name="Trazado 91" d="M400.007,19.646a2.813,2.813,0,0,0-5.443,0Zm2.722,5.567a6.244,6.244,0,0,1-1.336.99,7.842,7.842,0,0,1-3.86.99,6.31,6.31,0,1,1-.124-12.619,6.072,6.072,0,0,1,6.062,6.062A9.689,9.689,0,0,1,403.4,21.7l-.05.421h-8.784a3.115,3.115,0,0,0,3.217,2.1,4.261,4.261,0,0,0,2.4-.668,3.192,3.192,0,0,0,.817-.693Z" transform="translate(-252.515 -9.41)" fill="#fff"></path>
    <rect id="Rectángulo_28" data-name="Rectángulo 28" width="3.34" height="17.32" transform="translate(152.839 0.216)" fill="#fff"></rect>
    <path id="Trazado_92" data-name="Trazado 92" d="M453.453,21.5,450.731,22c-.866.173-1.361.619-1.361,1.237,0,.767.495,1.237,1.485,1.237a2.569,2.569,0,0,0,2.6-2.722Zm0,3.959h-.124a5.055,5.055,0,0,1-.916.866,4.3,4.3,0,0,1-2.672.866,3.449,3.449,0,0,1-3.711-3.464,3.921,3.921,0,0,1,3.587-3.885l3.835-.693a1.938,1.938,0,0,0-2.1-1.608,3.187,3.187,0,0,0-2,.693,3.689,3.689,0,0,0-.718.668l-1.98-1.979a6.529,6.529,0,0,1,4.949-2.351,4.866,4.866,0,0,1,5.2,4.825v7.547h-3.34Z" transform="translate(-287.983 -9.41)" fill="#fff"></path>
    <path id="Trazado_93" data-name="Trazado 93" d="M495.61.609V4.073h4.948V17.929h3.712V4.073h4.949V.609Z" transform="translate(-319.993 -0.393)" fill="#fff"></path>
    <path id="Trazado_94" data-name="Trazado 94" d="M537.185.259h3.464L537.927,3.97h-2.722ZM539.412,10.4a2.813,2.813,0,0,0-5.443,0Zm2.722,5.567a6.24,6.24,0,0,1-1.336.99,7.842,7.842,0,0,1-3.86.99,6.31,6.31,0,1,1-.124-12.619,6.072,6.072,0,0,1,6.062,6.062,9.677,9.677,0,0,1-.074,1.064l-.05.421h-8.784a3.115,3.115,0,0,0,3.217,2.1,4.262,4.262,0,0,0,2.4-.668,3.188,3.188,0,0,0,.817-.693Z" transform="translate(-342.523 -0.167)" fill="#fff"></path>
    <path id="Trazado_95" data-name="Trazado 95" d="M579.949,24.719a5.327,5.327,0,0,1-1.237,1.237,6.31,6.31,0,1,1,0-10.145,5.327,5.327,0,0,1,1.237,1.237l-2.1,2.1a4.5,4.5,0,0,0-.792-.742,3.745,3.745,0,0,0-2.177-.742,3.093,3.093,0,0,0-3.093,3.217,3.093,3.093,0,0,0,3.093,3.216,3.745,3.745,0,0,0,2.177-.742,4.5,4.5,0,0,0,.792-.742Z" transform="translate(-367.02 -9.41)" fill="#fff"></path>
    <path id="Trazado_96" data-name="Trazado 96" d="M604.932,14.822h3.34v1.732h.124a5.81,5.81,0,0,1,.915-.99,4.125,4.125,0,0,1,2.672-.99c2.474,0,4.454,1.979,4.454,5.072v7.3H613.1v-6.8a2.1,2.1,0,0,0-2.227-2.351,2.569,2.569,0,0,0-2.6,2.722v6.433h-3.34Z" transform="translate(-390.578 -9.41)" fill="#fff"></path>
    <path id="Trazado_97" data-name="Trazado 97" d="M643.81,5.579h3.34V17.7h-3.34Zm1.683-5.32A1.9,1.9,0,0,1,647.4,2.115a1.919,1.919,0,0,1-1.93,1.856,1.9,1.9,0,0,1-1.9-1.856,1.918,1.918,0,0,1,1.93-1.856" transform="translate(-415.52 -0.167)" fill="#fff"></path>
    <path id="Trazado_98" data-name="Trazado 98" d="M669.983,24.719a5.326,5.326,0,0,1-1.237,1.237,6.31,6.31,0,1,1,0-10.145,5.326,5.326,0,0,1,1.237,1.237l-2.1,2.1a4.5,4.5,0,0,0-.792-.742,3.746,3.746,0,0,0-2.177-.742,3.093,3.093,0,0,0-3.093,3.217,3.093,3.093,0,0,0,3.093,3.216,3.746,3.746,0,0,0,2.177-.742,4.5,4.5,0,0,0,.792-.742Z" transform="translate(-425.15 -9.41)" fill="#fff"></path>
    <path id="Trazado_99" data-name="Trazado 99" d="M701.048,21.5,698.326,22c-.866.173-1.361.619-1.361,1.237,0,.767.495,1.237,1.485,1.237a2.569,2.569,0,0,0,2.6-2.722Zm0,3.959h-.124a5.045,5.045,0,0,1-.916.866,4.294,4.294,0,0,1-2.672.866,3.449,3.449,0,0,1-3.711-3.464,3.921,3.921,0,0,1,3.587-3.885l3.835-.693a1.939,1.939,0,0,0-2.1-1.608,3.188,3.188,0,0,0-2,.693,3.7,3.7,0,0,0-.718.668l-1.98-1.979a6.53,6.53,0,0,1,4.949-2.351,4.866,4.866,0,0,1,5.2,4.825v7.547h-3.34Z" transform="translate(-447.844 -9.41)" fill="#fff"></path>
    <path id="Trazado_100" data-name="Trazado 100" d="M253.7,77.016a2.351,2.351,0,1,0,0-4.7h-3.835v4.7Zm-7.546-8.165h7.67c3.711,0,6.062,2.351,6.062,5.815a5.506,5.506,0,0,1-1.484,4.033,4.477,4.477,0,0,1-1.485,1.039l3.588,6.433h-4.083l-3.093-5.691h-3.464v5.691h-3.711Z" transform="translate(-158.933 -44.454)" fill="#fff"></path>
    <path id="Trazado_101" data-name="Trazado 101" d="M297.582,89.126a3.1,3.1,0,1,0-3.093,3.217,3.093,3.093,0,0,0,3.093-3.217m-3.093-6.309a6.311,6.311,0,1,1-6.433,6.309,6.363,6.363,0,0,1,6.433-6.309" transform="translate(-185.986 -53.471)" fill="#fff"></path>
    <path id="Trazado_102" data-name="Trazado 102" d="M338.659,80.109a3.1,3.1,0,1,0-3.093,3.217,3.093,3.093,0,0,0,3.093-3.217m-9.4-11.258h3.34v6.928h.124a4.433,4.433,0,0,1,.94-.99,4.687,4.687,0,0,1,2.895-.99c2.87,0,5.443,2.623,5.443,6.309,0,3.712-2.573,6.309-5.443,6.309a4.687,4.687,0,0,1-2.895-.99,4.433,4.433,0,0,1-.94-.99H332.6v1.732h-3.34Z" transform="translate(-212.586 -44.454)" fill="#fff"></path>
    <path id="Trazado_103" data-name="Trazado 103" d="M378.319,87.889a2.813,2.813,0,0,0-5.443,0Zm2.722,5.567a6.233,6.233,0,0,1-1.336.99,7.843,7.843,0,0,1-3.86.99,6.31,6.31,0,1,1-.124-12.619,6.072,6.072,0,0,1,6.062,6.062,9.664,9.664,0,0,1-.074,1.064l-.05.421h-8.784a3.115,3.115,0,0,0,3.217,2.1,4.261,4.261,0,0,0,2.4-.668,3.2,3.2,0,0,0,.817-.693Z" transform="translate(-238.513 -53.471)" fill="#fff"></path>
    <path id="Trazado_104" data-name="Trazado 104" d="M410.612,83.065h3.34V84.8h.124a5.793,5.793,0,0,1,.915-.99,4.124,4.124,0,0,1,2.672-.99h.247v3.587l-.272-.049a5.82,5.82,0,0,0-.841-.074,2.907,2.907,0,0,0-2.846,3.217v5.691h-3.34Z" transform="translate(-265.113 -53.472)" fill="#fff"></path>
    <path id="Trazado_105" data-name="Trazado 105" d="M435.41,80.543h-2.1V77.451h1.114c.915,0,1.361-.5,1.361-1.485V73.739h2.969v3.712h2.722v3.093H438.75v4.083a1.532,1.532,0,0,0,1.608,1.732,3.669,3.669,0,0,0,.965-.124,1.87,1.87,0,0,0,.4-.124V89.2c-.2.074-.421.124-.643.2a6.862,6.862,0,0,1-1.584.173c-2.474,0-4.082-1.584-4.082-4.453Z" transform="translate(-279.766 -47.61)" fill="#fff"></path>
    <path id="Trazado_106" data-name="Trazado 106" d="M470.418,89.126a3.1,3.1,0,1,0-3.093,3.217,3.093,3.093,0,0,0,3.093-3.217m-3.093-6.309a6.311,6.311,0,1,1-6.433,6.309,6.363,6.363,0,0,1,6.433-6.309" transform="translate(-297.578 -53.471)" fill="#fff"></path>
    <path id="Trazado_107" data-name="Trazado 107" d="M526.748,77.016a2.351,2.351,0,0,0,0-4.7h-3.835v4.7ZM519.2,68.851h7.671c3.711,0,6.062,2.351,6.062,5.815a5.507,5.507,0,0,1-1.484,4.033,4.476,4.476,0,0,1-1.485,1.039l3.588,6.433h-4.083l-3.093-5.691h-3.464v5.691H519.2Z" transform="translate(-335.226 -44.454)" fill="#fff"></path>
    <path id="Trazado_108" data-name="Trazado 108" d="M571.324,89.126a3.1,3.1,0,1,0-3.093,3.217,3.093,3.093,0,0,0,3.093-3.217m-3.093-6.309a6.311,6.311,0,1,1-6.433,6.309,6.363,6.363,0,0,1,6.433-6.309" transform="translate(-362.728 -53.471)" fill="#fff"></path>
    <path id="Trazado_109" data-name="Trazado 109" d="M613.805,92.962a5.334,5.334,0,0,1-1.237,1.237,6.31,6.31,0,1,1,0-10.145,5.328,5.328,0,0,1,1.237,1.237l-2.1,2.1a4.526,4.526,0,0,0-.792-.742,3.748,3.748,0,0,0-2.177-.742,3.219,3.219,0,0,0,0,6.433,3.745,3.745,0,0,0,2.177-.742,4.5,4.5,0,0,0,.792-.742Z" transform="translate(-388.878 -53.471)" fill="#fff"></path>
    <path id="Trazado_110" data-name="Trazado 110" d="M648.722,92.962a5.326,5.326,0,0,1-1.237,1.237,6.31,6.31,0,1,1,0-10.145,5.32,5.32,0,0,1,1.237,1.237l-2.1,2.1a4.54,4.54,0,0,0-.792-.742,3.749,3.749,0,0,0-2.177-.742,3.219,3.219,0,0,0,0,6.433,3.746,3.746,0,0,0,2.177-.742,4.511,4.511,0,0,0,.792-.742Z" transform="translate(-411.422 -53.471)" fill="#fff"></path>
    <path id="Trazado_111" data-name="Trazado 111" d="M680.6,89.745l-2.722.495c-.866.173-1.361.619-1.361,1.237,0,.767.495,1.237,1.485,1.237a2.569,2.569,0,0,0,2.6-2.722Zm0,3.959h-.124a5.056,5.056,0,0,1-.916.866,4.3,4.3,0,0,1-2.672.866,3.449,3.449,0,0,1-3.711-3.464,3.92,3.92,0,0,1,3.587-3.885l3.836-.693a1.939,1.939,0,0,0-2.1-1.608,3.186,3.186,0,0,0-2,.693,3.683,3.683,0,0,0-.717.668l-1.98-1.979a6.529,6.529,0,0,1,4.949-2.351,4.866,4.866,0,0,1,5.2,4.825v7.547H680.6Z" transform="translate(-434.644 -53.471)" fill="#fff"></path>
    </g>
</svg>